<?xml version="1.0" encoding="UTF-8"?>
<svg width="40px" height="40px" viewBox="0 0 40 40" xmlns="http://www.w3.org/2000/svg" xmlns:xlink="http://www.w3.org/1999/xlink" version="1.1">
 <!-- Generated by Pixelmator Pro 1.5.5 -->
 <g id="New-Group">
  <g id="crosswalk-logo">
   <path id="Shape" d="M20.404 39.993 C19.138 40.014 17.777 39.986 17.381 39.931 16.984 39.876 16.213 39.732 15.667 39.611 15.121 39.49 14.168 39.223 13.549 39.019 12.931 38.814 11.846 38.363 11.139 38.016 10.432 37.669 9.444 37.111 8.944 36.775 8.443 36.44 7.718 35.908 7.333 35.595 6.949 35.281 6.15 34.527 5.56 33.919 4.969 33.312 4.214 32.447 3.882 31.999 3.551 31.55 3.059 30.819 2.789 30.375 2.519 29.93 2.081 29.109 1.816 28.549 1.551 27.99 1.148 26.962 0.92 26.264 0.692 25.566 0.392 24.417 0.253 23.71 0.033 22.591 0 22.114 0 20.015 0 17.916 0.033 17.439 0.253 16.319 0.392 15.613 0.694 14.459 0.923 13.756 1.153 13.053 1.573 11.993 1.857 11.4 2.141 10.807 2.644 9.888 2.974 9.357 3.305 8.827 3.845 8.056 4.175 7.644 4.505 7.231 5.219 6.443 5.761 5.892 6.304 5.342 7.172 4.56 7.691 4.156 8.209 3.751 9.039 3.175 9.535 2.876 10.031 2.576 10.892 2.115 11.448 1.852 12.003 1.589 13.043 1.182 13.758 0.947 14.473 0.712 15.646 0.411 16.364 0.279 17.457 0.078 18.044 0.039 19.976 0.039 21.908 0.039 22.495 0.078 23.588 0.279 24.306 0.411 25.479 0.712 26.194 0.947 26.909 1.182 27.949 1.589 28.504 1.852 29.06 2.115 29.921 2.576 30.417 2.876 30.913 3.175 31.743 3.749 32.261 4.151 32.78 4.553 33.758 5.456 34.436 6.158 35.113 6.86 35.992 7.891 36.389 8.449 36.785 9.008 37.448 10.139 37.862 10.964 38.276 11.789 38.807 13.056 39.043 13.78 39.278 14.505 39.579 15.684 39.712 16.402 39.913 17.496 39.952 18.083 39.952 20.015 39.952 21.947 39.913 22.534 39.712 23.627 39.579 24.345 39.279 25.518 39.044 26.233 38.809 26.948 38.401 27.99 38.136 28.549 37.871 29.109 37.43 29.935 37.156 30.387 36.882 30.838 36.332 31.642 35.933 32.172 35.535 32.702 34.661 33.669 33.992 34.321 33.323 34.973 32.409 35.778 31.96 36.109 31.511 36.44 30.78 36.932 30.336 37.202 29.891 37.472 29.077 37.906 28.527 38.166 27.977 38.427 27.007 38.814 26.371 39.027 25.735 39.24 24.65 39.536 23.961 39.685 22.889 39.917 22.373 39.961 20.404 39.993 Z M19.976 3.036 C18.108 3.148 17.092 3.281 16.512 3.402 15.933 3.524 15.017 3.774 14.477 3.957 13.937 4.141 13.014 4.531 12.425 4.825 11.836 5.119 10.968 5.619 10.497 5.937 10.025 6.254 9.259 6.845 8.793 7.25 8.328 7.655 7.616 8.367 7.211 8.832 6.806 9.298 6.211 10.073 5.889 10.556 5.567 11.038 5.067 11.906 4.779 12.484 4.491 13.062 4.105 13.976 3.921 14.515 3.737 15.054 3.486 15.946 3.364 16.496 3.211 17.184 3.123 18.067 3.081 19.319 3.044 20.445 3.068 21.528 3.146 22.157 3.215 22.717 3.387 23.633 3.53 24.193 3.672 24.752 3.928 25.571 4.1 26.013 4.272 26.455 4.46 26.807 4.519 26.795 4.579 26.783 4.631 26.916 4.636 27.09 4.641 27.264 4.821 27.732 5.035 28.129 5.25 28.526 5.693 29.231 6.019 29.695 6.345 30.159 6.706 30.563 6.82 30.592 6.934 30.622 7.005 30.706 6.977 30.778 6.95 30.85 7.272 31.268 7.694 31.706 8.116 32.143 8.629 32.644 8.833 32.819 9.038 32.993 9.246 33.153 9.295 33.173 9.344 33.194 9.49 33.315 9.619 33.443 9.748 33.57 10.193 33.897 10.608 34.169 11.023 34.442 11.758 34.863 12.241 35.106 12.724 35.349 13.482 35.692 13.926 35.868 14.37 36.044 15.129 36.291 15.614 36.417 16.099 36.542 16.856 36.709 17.298 36.787 17.846 36.883 18.799 36.916 20.297 36.891 22.035 36.861 22.702 36.807 23.494 36.629 24.045 36.506 24.937 36.254 25.476 36.07 26.015 35.886 26.925 35.501 27.498 35.216 28.071 34.93 28.89 34.467 29.319 34.186 29.747 33.905 30.204 33.57 30.333 33.443 30.462 33.315 30.608 33.194 30.657 33.173 30.706 33.153 30.912 32.991 31.114 32.814 31.317 32.638 31.683 32.3 31.929 32.065 32.174 31.829 32.678 31.277 33.047 30.838 33.417 30.399 33.959 29.676 34.252 29.231 34.545 28.787 34.929 28.11 35.105 27.727 35.282 27.344 35.514 26.838 35.621 26.602 35.729 26.366 35.942 25.797 36.095 25.336 36.248 24.876 36.472 24.032 36.592 23.462 36.712 22.891 36.842 21.883 36.882 21.22 36.922 20.557 36.922 19.473 36.882 18.81 36.842 18.147 36.711 17.135 36.59 16.56 36.469 15.985 36.222 15.069 36.039 14.525 35.857 13.98 35.482 13.078 35.206 12.521 34.93 11.964 34.438 11.111 34.115 10.627 33.79 10.143 33.181 9.344 32.761 8.851 32.34 8.358 31.593 7.614 31.101 7.197 30.608 6.78 29.844 6.196 29.402 5.898 28.96 5.601 28.116 5.116 27.527 4.82 26.938 4.525 26.011 4.134 25.466 3.952 24.922 3.769 24.006 3.521 23.431 3.401 22.856 3.28 21.844 3.148 21.181 3.109 Z" fill="#ff2600" fill-opacity="1" stroke="none"/>
   <path id="Shape-1" d="M14.499 30.618 C14.126 30.618 13.809 30.547 13.594 30.417 13.413 30.306 13.178 30.034 13.073 29.813 12.943 29.539 12.9 29.27 12.939 28.97 12.97 28.728 13.385 27.446 13.861 26.12 14.336 24.795 14.976 22.991 15.283 22.112 15.764 20.732 15.901 20.454 16.281 20.077 16.524 19.837 17.168 19.26 17.713 18.797 18.258 18.333 18.682 17.899 18.655 17.833 18.629 17.766 18.279 16.88 17.878 15.864 17.477 14.848 17.118 14.017 17.082 14.017 17.045 14.017 16.786 14.54 16.506 15.18 15.997 16.344 15.997 16.344 14.703 17.296 13.991 17.819 13.216 18.38 12.981 18.542 12.745 18.704 12.466 18.837 12.36 18.837 12.253 18.837 11.984 18.717 11.76 18.57 11.536 18.424 11.293 18.253 11.22 18.191 11.146 18.129 11.086 17.948 11.086 17.788 11.087 17.628 11.171 17.367 11.274 17.208 11.377 17.048 12.091 16.439 12.86 15.853 14.211 14.826 14.272 14.763 14.584 14.055 14.763 13.651 15.096 12.864 15.325 12.307 15.554 11.75 15.838 11.187 15.957 11.057 16.079 10.924 17.021 10.489 18.124 10.055 19.318 9.587 20.19 9.303 20.373 9.323 20.537 9.342 21.631 9.598 22.803 9.893 24.933 10.428 24.933 10.428 26.766 12.402 28.457 14.224 28.601 14.41 28.635 14.822 28.663 15.175 28.615 15.333 28.405 15.577 28.193 15.823 28.051 15.886 27.705 15.886 27.29 15.886 27.2 15.818 25.738 14.38 24.896 13.552 24.086 12.798 23.939 12.705 23.792 12.612 23.127 12.39 22.461 12.213 21.257 11.891 21.252 11.891 21.32 12.123 21.358 12.251 21.729 13.224 22.146 14.284 22.562 15.345 23.201 16.839 23.566 17.605 23.931 18.371 24.555 19.672 24.953 20.497 25.352 21.322 26.083 22.827 26.579 23.842 27.075 24.857 27.772 26.282 28.128 27.009 28.483 27.736 28.797 28.52 28.826 28.751 28.86 29.033 28.813 29.296 28.684 29.545 28.578 29.75 28.327 30.028 28.127 30.161 27.873 30.331 27.606 30.404 27.242 30.404 26.801 30.404 26.665 30.351 26.354 30.056 26.118 29.832 25.667 29.059 25.089 27.887 24.596 26.886 23.813 25.271 23.35 24.299 22.887 23.327 22.246 22.002 21.926 21.354 21.606 20.706 21.304 20.133 21.256 20.081 21.207 20.028 20.896 20.218 20.552 20.509 20.214 20.797 19.852 21.021 19.749 21.008 19.638 20.994 19.548 21.065 19.528 21.185 19.509 21.295 19.275 21.619 19.007 21.905 18.577 22.363 18.441 22.644 17.856 24.273 17.492 25.289 16.895 26.952 16.531 27.968 15.982 29.496 15.799 29.885 15.471 30.217 15.11 30.582 15.022 30.619 14.499 30.618 Z M16.863 9.621 C16.601 9.619 16.243 9.552 16.066 9.473 15.89 9.394 15.615 9.191 15.456 9.022 15.297 8.853 15.087 8.523 14.99 8.289 14.868 7.998 14.832 7.716 14.877 7.392 14.912 7.132 15.041 6.758 15.163 6.56 15.285 6.363 15.518 6.107 15.68 5.992 15.842 5.876 16.193 5.727 16.459 5.66 16.819 5.569 17.059 5.569 17.39 5.658 17.636 5.724 18.001 5.923 18.203 6.1 18.405 6.277 18.651 6.636 18.751 6.898 18.87 7.208 18.914 7.542 18.878 7.859 18.848 8.125 18.7 8.53 18.55 8.757 18.39 8.999 18.081 9.265 17.807 9.398 17.537 9.528 17.136 9.623 16.863 9.621 Z" fill="#000000" fill-opacity="1" stroke="none"/>
   <path id="Shape-2" d="M13.864 25.477 C13.012 27.843 12.744 28.726 12.719 28.966 12.693 29.216 12.743 29.569 12.836 29.792 12.953 30.072 13.114 30.229 13.408 30.352 13.633 30.446 13.957 30.593 14.128 30.678 14.299 30.763 14.551 30.833 14.688 30.833 14.9 30.833 14.929 30.876 14.885 31.127 14.856 31.29 14.783 31.759 14.723 32.172 14.662 32.584 14.587 33.006 14.556 33.109 14.504 33.281 14.282 33.296 11.895 33.296 9.654 33.296 9.272 33.273 9.151 33.127 9.035 32.987 9.04 32.882 9.181 32.511 9.275 32.266 9.748 31.221 10.231 30.19 10.715 29.159 11.415 27.677 11.786 26.897 12.463 25.477 12.463 25.477 13.163 25.477 Z M17.119 33.296 C17.261 32.259 17.444 31.029 17.617 29.895 17.791 28.761 18.013 27.303 18.112 26.655 L18.292 25.477 19.976 25.477 21.66 25.477 21.84 26.655 C21.939 27.303 22.161 28.761 22.334 29.895 22.508 31.029 22.691 32.259 22.741 32.627 L22.833 33.296 19.976 33.296 Z M28.052 33.296 C25.443 33.296 25.443 33.296 25.386 33.055 25.355 32.923 25.159 31.754 24.951 30.458 24.742 29.162 24.549 27.885 24.522 27.62 24.476 27.175 24.521 27.236 25.106 28.423 25.455 29.13 25.848 29.845 25.98 30.012 26.112 30.179 26.377 30.391 26.568 30.482 26.802 30.593 27.095 30.631 27.458 30.596 27.817 30.562 28.123 30.45 28.364 30.266 28.564 30.114 28.778 29.854 28.84 29.688 28.902 29.522 28.988 29.291 29.03 29.173 29.09 29.005 29.271 29.298 29.856 30.512 30.267 31.366 30.68 32.266 30.773 32.511 30.912 32.882 30.917 32.987 30.801 33.127 30.68 33.273 30.297 33.296 28.052 33.296 Z M33.408 30.417 C33.051 30.844 33.051 30.844 32.906 30.49 32.826 30.296 32.433 29.317 32.034 28.316 31.634 27.314 31.216 26.266 31.106 25.986 30.904 25.477 30.904 25.477 32.661 25.477 34.417 25.477 34.417 25.477 34.919 26.181 35.256 26.653 35.406 26.962 35.375 27.119 35.349 27.247 35.193 27.617 35.027 27.941 34.862 28.265 34.51 28.858 34.246 29.26 33.981 29.661 33.604 30.182 33.408 30.417 Z M9.035 25.477 C8.372 27.179 7.942 28.279 7.651 29.019 7.359 29.76 7.06 30.449 6.986 30.551 6.861 30.721 6.829 30.713 6.573 30.436 6.42 30.271 6.054 29.775 5.76 29.333 5.465 28.891 5.069 28.222 4.88 27.846 4.69 27.47 4.556 27.079 4.583 26.977 4.61 26.875 4.832 26.496 5.078 26.135 5.524 25.477 5.524 25.477 7.279 25.477 Z" fill="#fffdfe" fill-opacity="1" stroke="none"/>
  </g>
 </g>
</svg>
